<?xml version="1.0" encoding="UTF-8" standalone="no"?>
<svg
   xmlns:dc="http://purl.org/dc/elements/1.1/"
   xmlns:cc="http://creativecommons.org/ns#"
   xmlns:rdf="http://www.w3.org/1999/02/22-rdf-syntax-ns#"
   xmlns:svg="http://www.w3.org/2000/svg"
   xmlns="http://www.w3.org/2000/svg"
   xmlns:sodipodi="http://sodipodi.sourceforge.net/DTD/sodipodi-0.dtd"
   xmlns:inkscape="http://www.inkscape.org/namespaces/inkscape"
   version="1.1"
   id="svg3009"
   height="609.31146"
   width="999.46063"
   sodipodi:docname="logo.svg"
   inkscape:version="0.92.1 r">
  <sodipodi:namedview
     pagecolor="#ffffff"
     bordercolor="#666666"
     borderopacity="1"
     objecttolerance="10"
     gridtolerance="10"
     guidetolerance="10"
     inkscape:pageopacity="0"
     inkscape:pageshadow="2"
     inkscape:window-width="640"
     inkscape:window-height="480"
     id="namedview4853"
     showgrid="false"
     inkscape:zoom="0.38355698"
     inkscape:cx="226.5349"
     inkscape:cy="152.02307"
     inkscape:current-layer="svg3009"
     fit-margin-top="0"
     fit-margin-left="0"
     fit-margin-right="0"
     fit-margin-bottom="0" />
  <defs
     id="defs3011" />
  <metadata
     id="metadata3014">
    <rdf:RDF>
      <cc:Work
         rdf:about="">
        <dc:format>image/svg+xml</dc:format>
        <dc:type
           rdf:resource="http://purl.org/dc/dcmitype/StillImage" />
        <dc:title></dc:title>
      </cc:Work>
    </rdf:RDF>
  </metadata>
  <g
     transform="translate(406.39706,-55.84518)"
     style="display:inline;fill:#000000;stroke:none"
     id="layer6" />
  <g
     transform="translate(406.39706,-55.84518)"
     style="display:inline;fill:#000000;stroke:none"
     id="layer5" />
  <path
     style="color:#000000;font-style:normal;font-variant:normal;font-weight:normal;font-stretch:normal;font-size:medium;line-height:normal;font-family:Sans;-inkscape-font-specification:Sans;text-indent:0;text-align:start;text-decoration:none;text-decoration-line:none;letter-spacing:normal;word-spacing:normal;text-transform:none;writing-mode:lr-tb;direction:ltr;baseline-shift:baseline;text-anchor:start;display:inline;overflow:visible;visibility:visible;fill:#000000;fill-opacity:1;stroke:none;stroke-width:2.13333344;marker:none;enable-background:accumulate"
     d="m 499.19628,0 c -18.69561,0 -34.06055,15.25929 -34.06055,34.23242 0,18.97313 15.36494,34.19922 34.06055,34.19922 18.69561,0 34.0625,-15.22609 34.0625,-34.19922 C 533.25878,15.25929 517.89189,0 499.19628,0 Z m 0,4.43164 c 16.65061,0 29.93945,13.42768 29.93945,29.80078 0,16.3731 -13.28884,29.76758 -29.93945,29.76758 -16.65062,0 -29.9375,-13.39448 -29.9375,-29.76758 0,-16.3731 13.28688,-29.80078 29.9375,-29.80078 z M 278.12987,6.58789 a 0.93969509,0.93969509 0 0 0 -0.58398,0.27344 0.93969509,0.93969509 0 0 0 -0.25977,0.42383 c -5.43155,11.09264 -9.7822,22.50262 -13.15039,34.12304 a 0.93969509,0.93969509 0 0 0 -0.38281,1.35742 c -1.84402,6.51858 -3.3806,13.10249 -4.62695,19.73243 a 0.94398794,0.94398794 0 0 0 -0.12305,0.65234 c -0.92073,4.97596 -1.67751,9.97642 -2.2793,14.99609 a 0.93969509,0.93969509 0 0 0 -0.0605,0.51172 c -0.98491,8.36442 -1.54687,16.77685 -1.70118,25.20313 a 0.93969509,0.93969509 0 0 0 -0.0156,1.45117 c -0.0998,7.73692 0.13249,15.48198 0.67578,23.20898 a 0.93969509,0.93969509 0 0 0 0.10742,1.53321 c 0.002,0.002 0.005,0.002 0.008,0.004 0.56761,7.50592 1.42125,14.99274 2.54493,22.4336 a 0.93969509,0.93969509 0 0 0 0.22461,1.44726 c 1.50105,9.63641 3.46179,19.18704 5.80078,28.60938 a 0.93969509,0.93969509 0 0 0 0.29883,1.19922 c 6.07924,24.1163 14.70596,47.33765 25.05664,68.70703 15.2542,31.49293 34.21165,58.98151 54.16015,79.49414 a 0.93969509,0.93969509 0 0 0 0.5,0.52148 c 2.94047,3.00391 5.89909,5.86082 8.87305,8.55078 22.78513,20.60927 46.34326,31.80071 66.82226,28.89453 -1.31451,1.80516 -2.46745,3.59783 -3.42187,5.37305 -21.40433,39.81179 -24.38214,80.09603 -16.90039,114.99805 C 372.65754,416.69768 328.90517,362.68747 267.5537,326.9375 a 1.0667733,1.0667733 0 0 0 -0.81445,-0.47852 c -0.51668,-0.29894 -1.02381,-0.60793 -1.54297,-0.90429 -7.83693,-4.47378 -15.96408,-8.64641 -24.36719,-12.53711 a 1.0667733,1.0667733 0 0 0 -0.92187,-0.42188 c -10.02258,-4.60398 -20.44748,-8.79545 -31.27735,-12.58398 a 1.0667733,1.0667733 0 0 0 -0.59375,-0.20899 1.0667733,1.0667733 0 0 0 -0.002,0 c -8.84211,-3.07681 -17.95144,-5.88656 -27.33399,-8.42773 a 1.0667733,1.0667733 0 0 0 -0.35351,-0.0977 c -9.76762,-2.63655 -19.82742,-4.98754 -30.18359,-7.05078 -0.0115,-0.0129 -0.0217,-0.0261 -0.0332,-0.0391 a 1.0667733,1.0667733 0 0 0 -1.0664,-0.36523 1.0667733,1.0667733 0 0 0 -0.3125,0.13085 c -12.93511,-2.53827 -26.32826,-4.63487 -40.1836,-6.29492 -0.10293,-0.0692 -0.21187,-0.13219 -0.40429,-0.20312 -0.12516,-0.0462 -0.30831,-0.15876 -0.73243,-0.0332 -0.0487,0.0144 -0.0997,0.0523 -0.15039,0.0781 -6.26564,-0.73694 -12.629822,-1.37947 -19.083982,-1.93945 a 1.0667733,1.0667733 0 0 0 -0.9668,-0.27149 1.0667733,1.0667733 0 0 0 -0.36914,0.15821 C 81.575773,274.9995 76.228167,274.6114 70.81733,274.28115 a 1.0667733,1.0667733 0 0 0 -0.6875,-0.0605 1.0667733,1.0667733 0 0 0 -0.05273,0.0156 c -9.481032,-0.56865 -19.144001,-0.96986 -29.013636,-1.18156 -12.924966,-0.27724 -26.191594,-0.23254 -39.7871085,0.0957 a 1.0667733,1.0667733 0 0 0 -0.246094,-0.0293 1.0667733,1.0667733 0 0 0 -1.02539103,1.16797 1.0667733,1.0667733 0 0 0 0,0.002 1.0667733,1.0667733 0 0 0 0.0078,0.0684 1.0667733,1.0667733 0 0 0 0.08594,0.29883 C 4.6830215,288.77424 10.399212,302.43457 17.075173,315.60946 a 1.0749677,1.0749677 0 0 0 0,0.002 1.0749677,1.0749677 0 0 0 0.611328,1.18945 c 3.772738,7.36473 7.845997,14.57577 12.191406,21.62891 a 1.0713439,1.0713439 0 0 0 0.390625,0.63281 c 8.800179,14.21143 18.696434,27.77959 29.464844,40.65234 a 1.0671874,1.0671874 0 0 0 0.990234,1.16993 c 6.161964,7.30625 12.599067,14.39021 19.273448,21.23815 a 1.068748,1.068748 0 0 0 1.132812,1.16601 c 0.0045,-2.5e-4 0.0091,2.5e-4 0.01367,0 6.520726,6.63784 13.258626,13.05528 20.17774,19.24219 a 1.0749677,1.0749677 0 0 0 1.1582,1.0293 c 8.96397,7.9595 18.23087,15.5178 27.69727,22.69336 a 1.0688779,1.0688779 0 0 0 0.99219,0.75195 c 24.16625,18.21889 49.64947,33.85381 75.02734,46.58203 37.31992,18.71773 74.37769,31.17927 106.66211,36.50977 a 1.0667733,1.0667733 0 0 0 0.83008,0.14648 c 4.76772,0.77118 9.43297,1.38916 13.97461,1.84375 35.11445,3.51476 63.14729,-2.50981 76.99804,-19.89648 7.43948,15.37459 12.06028,35.66324 22.10352,50.46289 6.51449,14.33189 2.68047,24.98415 -5.9668,32.5 -8.64727,7.51585 -22.30987,11.67201 -35.10156,12 -12.79169,0.32799 -24.62765,-3.2183 -29.86524,-10.33203 -2.61879,-3.55688 -3.7012,-7.9812 -2.5332,-13.60157 1.168,-5.62036 4.67219,-12.4199 11.26563,-20.33203 a 1.0776957,1.0776957 0 0 0 -1.66602,-1.36719 c -6.7399,8.08788 -10.39847,15.15878 -11.66797,21.26758 -1.2695,6.1088 -0.0641,11.27237 2.90039,15.29883 5.92908,8.05293 18.42645,11.53985 31.63477,11.20117 13.20831,-0.33868 27.21237,-4.51585 36.39844,-12.5 9.18606,-7.98415 13.35203,-19.99856 6.5332,-35 a 1.0667733,1.0667733 0 0 0 -0.0996,-0.16797 c -5.40324,-7.91004 -9.21149,-17.63068 -12.84375,-27.41211 0.0492,0.092 0.0952,0.18746 0.14453,0.2793 11.26618,20.95601 26.13619,37.59578 41.59961,47.69922 15.36451,10.03882 31.34876,13.6337 44.83789,8.36523 l 0.0293,0.10157 0.043,-0.12696 c 0.063,-0.0248 0.12657,-0.0471 0.18945,-0.0723 l 0.73437,-0.30078 -0.5332,-0.56641 0.79883,-0.19922 c 20.39915,-4.84553 42.50054,-19.85841 59.22851,-42.67578 -1.76768,4.80246 -2.81987,9.94635 -2.82812,15.50781 -2.64474,13.67967 4.29958,24.68561 15.13281,32.20117 10.88762,7.55328 25.7088,11.79102 39.23438,12.33204 13.52558,0.54102 25.86804,-2.53481 31.5664,-10.29883 2.84919,-3.88202 3.88834,-8.9377 2.5,-14.9336 -1.38831,-5.99591 -5.13195,-12.98412 -11.86718,-21.0664 a 1.0776799,1.0776799 0 1 0 -1.66602,1.36719 c 6.5981,7.9177 10.18847,14.64526 11.4668,20.16601 1.27832,5.52076 0.31618,9.81457 -2.16797,13.19922 -4.9683,6.76932 -16.62454,9.95923 -29.76563,9.43359 -13.14108,-0.52565 -27.65389,-4.68687 -38.09961,-11.93359 -10.44571,-7.24672 -16.81266,-17.37415 -14.23437,-30.26563 a 1.0667733,1.0667733 0 0 0 0.0332,-0.20117 c 0.0385,-25.95611 24.38354,-42.74097 37.03321,-58.96679 2.56988,-2.56989 7.70965,-6.12252 14.86914,-10.4004 21.74866,16.54684 42.98766,26.18135 67.39453,34.80079 -3.32901,0.48237 -6.62114,0.91317 -9.83008,1.23437 -35.1216,3.51548 -62.59605,-2.73813 -75.56641,-19.59961 a 1.0667733,1.0667733 0 1 0 -1.66601,1.29883 c 13.69631,17.80521 41.95519,23.98478 77.43359,20.43359 4.54237,-0.45466 9.20804,-1.07435 13.97656,-1.8457 a 1.0667733,1.0667733 0 0 0 0.82813,-0.14453 c 32.28434,-5.33053 69.34231,-17.7921 106.66211,-36.50977 25.37831,-12.72844 50.86267,-28.36274 75.0293,-46.58203 a 1.0688779,1.0688779 0 0 0 0.98828,-0.75 c 9.46805,-7.17673 18.73571,-14.73632 27.70117,-22.69726 a 1.0749677,1.0749677 0 0 0 1.15429,-1.02539 c 6.92006,-6.18771 13.66008,-12.60735 20.18165,-19.2461 0.004,2.2e-4 0.008,-2.1e-4 0.0117,0 a 1.0687515,1.0687515 0 0 0 1.12891,-1.16406 c 6.67535,-6.8488 13.11456,-13.93091 19.27734,-21.23828 a 1.0671912,1.0671912 0 0 0 0.98829,-1.16602 c 10.76922,-12.87343 20.66602,-26.44397 29.46679,-40.65625 a 1.0713472,1.0713472 0 0 0 0.38672,-0.6289 c 4.34649,-7.05458 8.42174,-14.26651 12.19531,-21.63282 a 1.0749712,1.0749712 0 0 0 0.60938,-1.1875 c 6.67558,-13.17371 12.39208,-26.83264 16.97658,-40.94726 a 1.0667733,1.0667733 0 0 0 0.09,-0.31836 1.0667733,1.0667733 0 0 0 0.01,-0.0742 1.0667733,1.0667733 0 0 0 0,-0.01 1.0667733,1.0667733 0 0 0 -1.0605,-1.14258 1.0667733,1.0667733 0 0 0 -0.2207,0.0293 c -13.5927,-0.32805 -26.85684,-0.37298 -39.77931,-0.0957 -9.87436,0.2118 -19.54192,0.61247 -29.02734,1.18164 a 1.0667733,1.0667733 0 0 0 -0.50586,-0.0156 1.0667733,1.0667733 0 0 0 -0.19922,0.0586 c -5.42154,0.33074 -10.77949,0.72131 -16.07422,1.16992 a 1.0667733,1.0667733 0 0 0 -0.79297,-0.16211 1.0667733,1.0667733 0 0 0 -0.53125,0.27344 c -6.45484,0.56003 -12.81966,1.20244 -19.08594,1.93945 -0.0507,-0.0258 -0.10165,-0.0637 -0.15039,-0.0781 -0.42411,-0.12551 -0.60726,-0.0129 -0.73242,0.0332 -0.19204,0.0708 -0.30153,0.1341 -0.4043,0.20313 -13.86013,1.66062 -27.25799,3.75741 -40.19726,6.29687 a 1.0667733,1.0667733 0 0 0 -0.76563,-0.13476 1.0667733,1.0667733 0 0 0 -0.59961,0.36718 c -0.0115,0.0129 -0.0217,0.0261 -0.0332,0.0391 -10.33818,2.05964 -20.38115,4.40613 -30.13281,7.03711 a 1.0667733,1.0667733 0 0 0 -0.20117,0.0234 1.0667733,1.0667733 0 0 0 -0.25586,0.10157 c -9.36818,2.53855 -18.46369,5.34529 -27.29297,8.41796 a 1.0667733,1.0667733 0 0 0 -0.002,0 1.0667733,1.0667733 0 0 0 -0.11524,0.0137 1.0667733,1.0667733 0 0 0 -0.45117,0.18554 c -10.84255,3.79245 -21.27908,7.98986 -31.3125,12.59961 a 1.0667733,1.0667733 0 0 0 -0.26953,0.0156 1.0667733,1.0667733 0 0 0 -0.62891,0.39648 c -8.40425,3.89112 -16.53316,8.06276 -24.37109,12.53711 -0.52071,0.29725 -1.02867,0.60836 -1.54688,0.9082 a 1.0667733,1.0667733 0 0 0 -0.15429,0.0254 1.0667733,1.0667733 0 0 0 -0.65039,0.44532 c -65.75626,38.31464 -111.30123,97.60004 -137.7168,179.48828 a 1.0667733,1.0667733 0 0 0 -0.0664,0.4668 c -5.62479,6.38836 -12.7844,13.13715 -19.09375,20.77343 19.52456,-39.40201 23.3653,-94.2517 -10.87304,-157.19336 58.03727,-24.84083 100.86454,-64.13393 129.48437,-118.52929 a 0.92556907,0.92556907 0 0 0 0.45899,-0.86719 c 0.22885,-0.43857 0.46439,-0.87003 0.6914,-1.31055 3.68464,-7.14994 7.11762,-14.56634 10.32227,-22.23242 a 0.92556907,0.92556907 0 0 0 0.375,-0.88281 c 3.79124,-9.14547 7.23749,-18.66524 10.35742,-28.54688 a 0.92556907,0.92556907 0 0 0 0.16797,-0.5332 c 2.54374,-8.0986 4.87128,-16.43402 6.9707,-25.0293 a 0.92556907,0.92556907 0 0 0 0.0391,-0.16406 c 2.17801,-8.93219 4.11653,-18.1358 5.82032,-27.60742 0.0269,-0.0265 0.0531,-0.0516 0.0801,-0.0781 a 0.92556907,0.92556907 0 0 0 0.16407,-1.26562 c 2.09235,-11.81816 3.81201,-24.06482 5.17968,-36.72461 0.0536,-0.0838 0.10263,-0.14744 0.15625,-0.30859 0.0346,-0.104 0.12439,-0.26039 0.0332,-0.60157 -0.0126,-0.0471 -0.0459,-0.10172 -0.0703,-0.15429 0.61017,-5.74353 1.15209,-11.56918 1.61524,-17.48633 a 0.93467252,0.93467252 0 0 0 0.082,-1.14258 c 0.37124,-4.84995 0.69529,-9.75414 0.96875,-14.7207 a 0.9293082,0.9293082 0 0 0 0.0352,-0.58203 c 1.08686,-20.03828 1.3825,-41.02537 0.90234,-62.97266 a 0.92556907,0.92556907 0 0 0 0,-0.13281 0.92556907,0.92556907 0 0 0 0,-0.0332 0.92556907,0.92556907 0 0 0 0,-0.0664 0.92556907,0.92556907 0 0 0 0,-0.0332 0.92556907,0.92556907 0 0 0 -0.0332,-0.0664 0.92556907,0.92556907 0 0 0 0,-0.0332 0.92556907,0.92556907 0 0 0 0,-0.0332 0.92556907,0.92556907 0 0 0 -0.0332,-0.0332 0.92556907,0.92556907 0 0 0 0,-0.0684 0.92556907,0.92556907 0 0 0 -0.0332,-0.0332 0.92556907,0.92556907 0 0 0 -0.0332,-0.0332 0.92556907,0.92556907 0 0 0 0,-0.0332 0.92556907,0.92556907 0 0 0 -0.0332,-0.0664 0.92556907,0.92556907 0 0 0 -0.0332,0 0.92556907,0.92556907 0 0 0 -0.10156,-0.13281 0.92556907,0.92556907 0 0 0 -0.0332,0 0.92556907,0.92556907 0 0 0 -0.0332,-0.0664 0.92556907,0.92556907 0 0 0 -0.0332,0 0.92556907,0.92556907 0 0 0 -0.0332,-0.0332 0.92556907,0.92556907 0 0 0 -0.0332,-0.0332 0.92556907,0.92556907 0 0 0 -0.0664,-0.0332 0.92556907,0.92556907 0 0 0 -0.0332,0 0.92556907,0.92556907 0 0 0 -0.0332,-0.0352 0.92556907,0.92556907 0 0 0 -0.0332,0 0.92556907,0.92556907 0 0 0 -0.0664,-0.0332 0.92556907,0.92556907 0 0 0 -0.0332,0 0.92556907,0.92556907 0 0 0 -0.0332,0 0.92556907,0.92556907 0 0 0 -0.0664,0 0.92556907,0.92556907 0 0 0 -0.13477,-0.0332 0.92556907,0.92556907 0 0 0 -0.0332,0.0332 0.92556907,0.92556907 0 0 0 -0.0664,0 0.92556907,0.92556907 0 0 0 -0.0332,0 0.92556907,0.92556907 0 0 0 -0.30078,0.13476 0.92556907,0.92556907 0 0 0 -0.0996,0.0332 c -11.55573,4.16942 -22.73978,9.35329 -33.5293,15.4043 a 0.92556907,0.92556907 0 0 0 -0.30468,-0.0137 0.92556907,0.92556907 0 0 0 -0.74805,0.61523 c -6.05318,3.43468 -11.98165,7.14176 -17.7793,11.09571 a 0.92556907,0.92556907 0 0 0 -0.58984,0.40429 c -11.69566,8.02232 -22.86395,17.0417 -33.45899,26.85352 a 0.92556907,0.92556907 0 0 0 -0.15625,-0.002 0.92556907,0.92556907 0 0 0 -0.83398,0.92773 c -6.01766,5.61956 -11.84998,11.48996 -17.49023,17.57617 a 0.92556907,0.92556907 0 0 0 -0.10938,-0.004 0.92556907,0.92556907 0 0 0 -0.86719,1 c 10e-4,0.0209 0.003,0.0416 0.004,0.0625 -5.47341,5.95339 -10.75215,12.11655 -15.85352,18.43359 a 0.92556907,0.92556907 0 0 0 -0.0508,0.004 0.92556907,0.92556907 0 0 0 -0.79883,1.0332 c 3.7e-4,0.003 0.002,0.006 0.002,0.01 -6.56507,8.18626 -12.8086,16.64194 -18.72657,25.2871 a 0.92556907,0.92556907 0 0 0 -0.65234,0.95508 c -15.01603,22.06184 -27.90207,45.32484 -38.39062,68.49024 -15.48456,34.19974 -25.76746,68.12706 -30.13282,97.66601 -0.005,0.0339 -0.0283,0.0657 -0.0332,0.0996 a 0.92556907,0.92556907 0 0 0 0,0.10156 c -0.65093,4.42874 -1.18552,8.78464 -1.56641,13 -0.20417,2.25954 -0.36121,4.47593 -0.48632,6.66797 -6.44248,-7.40109 -13.42032,-14.87448 -20.98047,-22.41015 -0.0448,-0.0567 -0.088,-0.10928 -0.13282,-0.16602 h -0.0332 c -0.0114,-0.0114 -0.0218,-0.0219 -0.0332,-0.0332 l -0.36719,0.36523 h -0.5332 c 0,0.0205 1.3e-4,0.0479 0,0.0684 -0.0341,5.03138 -4.25375,11.13858 -10.9668,17.79883 -6.74035,6.68735 -15.9152,13.92458 -25.59961,21.43359 -13.41032,10.39797 -27.77815,21.24592 -37.99219,31.84571 23.2822,-49.38479 30.2535,-96.62649 21.00391,-142.38086 a 0.93969509,0.93969509 0 0 0 -0.0801,-0.36524 c -2.50575,-12.27816 -6.18967,-24.44831 -11.0293,-36.52539 a 0.93969509,0.93969509 0 0 0 -0.27929,-0.70508 c -0.18902,-0.46717 -0.36413,-0.93545 -0.55664,-1.40234 -2.86015,-6.9366 -6.11993,-13.8402 -9.74805,-20.7168 a 0.93969509,0.93969509 0 0 0 -0.39648,-0.76171 c -4.35672,-8.1911 -9.268,-16.3413 -14.71289,-24.45704 a 0.93969509,0.93969509 0 0 0 -0.31446,-0.46484 c -4.45193,-6.60941 -9.24935,-13.19596 -14.42187,-19.76172 a 0.93969509,0.93969509 0 0 0 -0.22461,-0.2832 c -5.37244,-6.80535 -11.13587,-13.58888 -17.28125,-20.35352 -1.9e-4,-0.0119 1.9e-4,-0.0233 0,-0.0351 a 0.93969509,0.93969509 0 0 0 -0.87891,-0.93946 c -7.73158,-8.45741 -16.07964,-16.88585 -25.01758,-25.29101 -0.0304,-0.10449 -0.0689,-0.20966 -0.17187,-0.36914 -0.0671,-0.104 -0.17204,-0.27328 -0.5,-0.40039 -0.051,-0.0198 -0.11157,-0.0212 -0.16992,-0.0274 -4.04871,-3.79056 -8.21212,-7.57561 -12.50586,-11.35742 a 0.93969509,0.93969509 0 0 0 -0.92188,-0.80078 c -3.52901,-3.09532 -7.13897,-6.18716 -10.83203,-9.27734 a 0.93969509,0.93969509 0 0 0 -0.48828,-0.41407 C 312.82845,31.79131 296.53731,19.34574 278.91183,6.91795 a 0.93969509,0.93969509 0 0 0 -0.7793,-0.33008 z M 734.39745,9.5293 c -7.44972,9.81575 -14.9682,20.80443 -22.49219,32.66797 0.48067,-8.26489 1.09937,-16.44044 4.0586,-24.57618 a 0.92556907,0.92556907 0 0 0 0.0527,-0.16992 c 6.0157,-2.92413 12.14369,-5.57291 18.38086,-7.92187 z M 279.66308,9.78906 c 3.09532,2.1948 6.13488,4.39002 9.14648,6.58594 2.60627,10.48119 0.69384,19.84948 -0.29883,29.67187 -3.71775,-12.70461 -6.73534,-24.8683 -8.84765,-36.25781 z m 456.46679,0.64063 c 0.0719,3.78848 0.11141,7.53705 0.13672,11.26758 -6.47462,9.46521 -14.60824,14.91354 -22.5625,21.24023 7.51111,-11.81985 15.00624,-22.75672 22.42578,-32.50781 z m -458.33789,0.11328 c 2.13827,11.41889 5.16082,23.57886 8.88672,36.26953 -6.25024,-5.26072 -12.35882,-10.5588 -16.58203,-17.5918 a 0.93969509,0.93969509 0 0 0 -0.0293,-0.0566 c 2.25949,-6.29092 4.82852,-12.50375 7.72461,-18.62109 z m 13.33008,7.52734 c 3.09369,2.27237 6.15225,4.54452 9.15625,6.81836 -1.03616,14.4049 -0.0423,27.8018 -5.03906,42.51563 -1.91469,-5.70914 -3.72426,-11.34471 -5.39844,-16.87891 a 0.93969509,0.93969509 0 0 0 0.12305,-0.4043 c 0.66185,-10.40811 3.41578,-20.53617 1.1582,-32.05078 z m 208.07422,0.14844 a 16,16 0 0 0 -16,16 16,16 0 0 0 16,16 16,16 0 0 0 16,-16 16,16 0 0 0 -16,-16 z m 214.43555,0.41602 c -2.96142,9.03801 -3.30121,18.00637 -3.8125,26.88476 -3.37704,5.39618 -6.75486,10.96371 -10.12696,16.67774 l 3.92774,-38.23829 c 3.30077,-1.85781 6.63802,-3.63515 10.01172,-5.32421 z m 22.64843,6.20898 c 0.0125,3.82744 0.006,7.63044 -0.0312,11.39648 -11.53991,9.7202 -21.20606,20.22064 -35.17773,27.36719 3.26545,-5.53563 6.53459,-10.93945 9.80273,-16.17578 a 0.92556907,0.92556907 0 0 0 0.42383,-0.21094 c 8.30125,-7.10137 17.51334,-12.48007 24.98242,-22.37695 z m -34.62304,0.22656 -4.19336,40.81836 a 0.92556907,0.92556907 0 0 0 -0.008,0.10547 c -4.15532,7.12456 -8.29825,14.47241 -12.42382,21.97461 -1.64179,-17.20913 -1.25229,-35.79649 0.15625,-52.55274 5.37931,-3.6711 10.87074,-7.12555 16.46875,-10.3457 z m -399.58399,1.18164 c 8.46336,6.44558 16.5626,12.8983 24.30469,19.35938 -4.11152,18.09234 -10.06932,34.12487 -21.96094,47.56445 -2.89246,-7.70668 -5.63894,-15.33025 -8.18945,-22.82031 5.93801,-15.6173 4.91987,-29.57841 5.8457,-44.10352 z m -32.80078,5.16602 c 4.90294,7.5832 11.74991,13.1341 18.38672,18.71875 1.72647,5.73632 3.59279,11.57714 5.57812,17.49805 l -27.38671,-25.4375 c 1.04246,-3.61573 2.18492,-7.20879 3.42187,-10.7793 z m 413.9707,5.3457 c -1.37842,17.19967 -1.71466,36.18927 0.1543,53.69141 a 0.92556907,0.92556907 0 0 0 0.0937,0.32226 c -3.38553,6.19719 -6.7524,12.51835 -10.10352,18.90235 -4.04576,-26.817 -2.39177,-46.00735 -1.3789,-64.67578 3.68686,-2.85027 7.43338,-5.59645 11.23437,-8.24024 z m 52.97852,1.9707 c -0.13881,10.81427 -0.4881,21.37123 -1.04297,31.67774 -16.14124,10.23389 -31.75316,17.61503 -48.69726,18.8418 4.26003,-7.74467 8.53959,-15.32256 12.82812,-22.66016 15.24879,-7.05871 25.33,-17.92941 36.91211,-27.85938 z m -470.93945,5.48243 29.18164,27.13867 a 0.93969509,0.93969509 0 0 0 0.0508,0.0449 c 2.48975,7.28298 5.15457,14.67943 7.96484,22.16016 -14.87592,-8.82785 -29.27974,-20.00897 -41.48633,-30.89454 1.16924,-6.1973 2.59457,-12.35183 4.28907,-18.44921 z m 404.80273,2.29297 c -1.05181,18.74198 -2.64947,38.37579 1.82227,66.00585 -3.25573,6.23585 -6.49417,12.52615 -9.70508,18.88086 -8.77155,-22.23135 -11.7965,-44.50708 -11.2832,-68.45898 6.19662,-5.76276 12.58791,-11.25239 19.16601,-16.42773 z m -342.08594,0.45117 c 3.39835,2.85515 6.71331,5.71332 9.97071,8.57226 -5.38529,22.16498 -8.65764,43.02551 -24.89844,59.82422 -2.72384,-6.7665 -5.37843,-13.50374 -7.89844,-20.16992 12.43235,-13.68881 18.60909,-30.01052 22.82617,-48.22656 z m 11.57617,9.97265 c 4.13502,3.65591 8.15807,7.31549 12.0625,10.97852 0.0199,0.11076 0.0382,0.18698 0.0586,0.37695 0.0835,0.77679 0.15169,2.03459 0.10156,3.69922 -0.10027,3.32926 -0.62709,8.3464 -2.16797,14.80078 -3.06814,12.85176 -10.17574,31.43133 -25.99414,54.00195 -0.39444,-0.92192 -0.79936,-1.84394 -1.1914,-2.76562 a 0.94192475,0.94192475 0 0 0 -0.54688,-1.4707 c -0.0297,-0.007 -0.0582,-0.016 -0.0879,-0.0234 -2.73134,-6.44204 -5.37635,-12.86385 -7.9668,-19.26563 16.95037,-17.11151 20.44436,-38.34713 25.73242,-60.33203 z m 309.48243,7.7461 c -0.34068,24.00462 2.91811,46.46134 12.0332,68.90039 -4.03239,8.00819 -8.01427,16.08932 -11.95508,24.1875 -8.9109,-24.71694 -15.19352,-49.98492 -16.61523,-76.3086 5.34606,-5.79263 10.85114,-11.40782 16.53711,-16.77929 z m -388.4668,0.14258 c 12.56346,11.12715 27.35709,22.538 42.63867,31.39843 a 0.93969509,0.93969509 0 0 0 0.29297,0.11328 c 2.34035,6.16847 4.80242,12.39888 7.31641,18.65039 -24.3359,-12.65846 -38.23966,-25.14936 -52.23242,-36.84179 0.5381,-4.45659 1.19361,-8.89914 1.98437,-13.32031 z m 93.07813,5.02343 c 3.78533,3.5899 7.45766,7.18352 11.02148,10.78125 -7.19718,30.14001 -15.28282,59.52865 -31.03711,83.0918 -0.0804,-0.1802 -0.15985,-0.36078 -0.24023,-0.54102 a 0.93969509,0.93969509 0 0 0 -0.58985,-1.33593 c -2.85523,-6.41639 -5.66322,-12.84786 -8.42578,-19.28125 a 0.94354803,0.94354803 0 0 0 0.56641,-0.37305 c 16.09379,-22.88758 23.361,-41.81823 26.5,-54.9668 1.5695,-6.57429 2.09474,-11.69691 2.19922,-15.16601 0.0251,-0.83409 0.0233,-1.56387 0.006,-2.20899 z m 381.39062,2.83594 c -0.25746,4.51527 -0.56373,8.97308 -0.90234,13.39063 -19.95195,12.259 -37.80273,25.0905 -59.72266,25.6582 3.63664,-6.93508 7.29114,-13.79655 10.9668,-20.50977 17.46915,-0.9637 33.41202,-8.35394 49.6582,-18.53906 z m -476.7168,7.68164 c 14.02903,11.76066 28.35657,24.48881 53.58008,37.31445 2.45571,6.06172 4.96072,12.13936 7.54297,18.23633 -24.23067,-6.39863 -44.1064,-17.12737 -62.63867,-31.51758 0.13178,-8.03391 0.62681,-16.05662 1.51562,-24.0332 z m 107.90235,1.83594 c 3.83434,3.90754 7.54813,7.82032 11.12109,11.73828 0.49532,43.11966 -15.69989,68.80752 -35.24219,88.47266 -2.53692,-5.52737 -5.06058,-11.07652 -7.55859,-16.6543 16.23185,-23.78572 24.44105,-53.35414 31.67969,-83.55664 z m 264.55078,1.13086 c 1.65052,26.5162 8.13792,51.92913 17.21289,76.74804 -0.43475,0.896 -0.87318,1.78925 -1.30664,2.68555 a 0.93482384,0.93482384 0 0 0 -0.2461,0.51172 c -3.58282,7.41308 -7.11018,14.82483 -10.5957,22.21484 -12.66806,-26.4714 -16.70278,-55.31068 -20.00195,-84.6914 4.81384,-5.97992 9.7912,-11.81345 14.9375,-17.46875 z m 103.18945,5.05078 c -0.45169,5.63478 -0.96909,11.19093 -1.55469,16.66601 -0.0915,0.10117 -0.15615,0.17551 -0.30078,0.3418 -0.55584,0.63906 -1.45889,1.61321 -2.76562,2.79883 -2.61346,2.37124 -6.75016,5.66297 -12.56641,9.26758 -11.55037,7.15832 -29.74583,15.57636 -55.85156,20.58984 0.47492,-0.9473 0.94386,-1.90222 1.41992,-2.84765 a 0.92556907,0.92556907 0 0 0 0.79688,-1.375 c -0.0159,-0.0385 -0.031,-0.0767 -0.0469,-0.11524 3.4052,-6.74682 6.84569,-13.41609 10.30078,-20.0293 22.67349,-0.17517 40.82265,-13.08796 60.56836,-25.29687 z M 379.2744,96.05664 c 5.52476,6.14232 10.73111,12.29891 15.61328,18.4707 -11.49565,40.76796 -20.56638,76.13898 -40.01367,95.20313 -3.27235,-6.90716 -6.54989,-13.89065 -9.81836,-20.95313 a 0.93969509,0.93969509 0 0 0 -0.50781,-1.10156 c -0.53065,-1.14822 -1.05819,-2.30182 -1.58789,-3.45312 19.63635,-19.6111 36.25299,-45.49743 36.31445,-88.16602 z m 234.96289,6.75586 c 3.32384,29.29491 7.52573,58.19336 20.60938,84.82422 -3.75807,7.98463 -7.44533,15.91292 -11.06836,23.76953 a 0.92556907,0.92556907 0 0 0 -0.31641,0.6875 c -1.06574,2.31228 -2.14441,4.64001 -3.19726,6.93555 -0.27456,0.59861 -0.52714,1.16434 -0.80078,1.76171 -11.41333,-30.1033 -18.10131,-63.79502 -22.95899,-93.89257 5.61798,-8.22311 11.52887,-16.27608 17.73242,-24.08594 z m -357.43359,3.92578 c 18.72632,14.34755 38.97238,25.07641 63.5957,31.36914 3.26912,7.68208 6.62704,15.3697 10.03516,23.03516 -26.29083,-7.76297 -51.02254,-17.82416 -72.90234,-32.16016 -0.53573,-7.40637 -0.7851,-14.82889 -0.72852,-22.24414 z m 475.27539,1.40234 c -0.59654,5.3153 -1.25733,10.55508 -1.98242,15.71875 -27.0844,16.78547 -54.12085,32.40995 -81.01172,38.23047 0.10686,-0.22033 0.21533,-0.43985 0.32227,-0.66015 a 0.92556907,0.92556907 0 0 0 0.60546,-1.23633 c 3.30002,-6.78802 6.63793,-13.55228 10.00391,-20.28516 a 0.92556907,0.92556907 0 0 0 0.71289,0.0469 c 26.62669,-5.04209 45.2139,-13.60739 57.03516,-20.9336 5.91062,-3.6631 10.12967,-7.01489 12.83203,-9.46679 0.5758,-0.52244 1.04458,-0.97991 1.48242,-1.41407 z m -335.75195,8.20899 c 4.72325,6.05238 9.12546,12.12004 13.23047,18.20508 -11.34515,38.5447 -24.36964,74.89537 -43.95313,97.62109 -2.29836,-4.76211 -4.61165,-9.57381 -6.9414,-14.45508 -0.97565,-2.04415 -1.95691,-4.12543 -2.93555,-6.1875 20.18529,-19.34889 29.19918,-54.66919 40.59961,-95.18359 z m 333.43554,9.875 c -0.81346,5.61434 -1.69811,11.14397 -2.66601,16.57812 -32.66405,31.8765 -61.47201,38.91904 -87.51758,39.13282 2.79749,-5.90048 5.61823,-11.80781 8.47656,-17.7168 27.35189,-5.57132 54.55259,-21.2006 81.70703,-37.99414 z m -134.76757,2.89258 c 4.9317,30.22272 11.72668,63.94003 23.36914,94.03711 a 0.92855922,0.92855922 0 0 0 0.0117,0.0273 c -1.91847,4.19486 -3.77162,8.28466 -5.64258,12.40625 a 0.93467166,0.93467166 0 0 0 -0.53516,1.17773 c -0.96551,2.12828 -1.96786,4.31283 -2.91992,6.41797 -19.08987,-27.39446 -24.34297,-57.96758 -29.58203,-89.66211 a 0.92556907,0.92556907 0 0 0 -0.006,-0.041 c 4.81133,-8.23623 9.91929,-16.37494 15.30469,-24.36328 z M 257.708,131.32812 c 22.20727,14.32658 47.2283,24.33824 73.71484,32.05469 0.35897,0.8044 0.71807,1.60646 1.07813,2.41016 a 0.94765859,0.94765859 0 0 0 0.26757,0.5918 c 3.13279,6.98614 6.305,13.93196 9.49219,20.83203 -30.51964,-5.94048 -56.34952,-19.76252 -82.04687,-34.46875 -1.08515,-7.10652 -1.92928,-14.25372 -2.50586,-21.41993 z m 153.20898,5.24219 c 5.05486,7.62465 9.62519,15.27749 13.70899,22.96094 -12.07051,36.01152 -25.16868,70.07087 -46.00782,99.39648 -2.69762,-5.51945 -5.37829,-10.99807 -8.17578,-16.75976 a 0.93969509,0.93969509 0 0 0 -0.60156,-1.24219 c -1.1107,-2.2891 -2.22943,-4.59969 -3.35156,-6.92187 20.01119,-22.82975 33.06533,-59.02814 44.42773,-97.4336 z m 315.60156,9.3711 c -1.56027,8.44197 -3.30657,16.66816 -5.24804,24.67187 -37.64052,21.42854 -69.85201,40.68757 -95.375,40.58399 3.45238,-7.47931 6.96234,-15.02029 10.53711,-22.61133 a 0.92556907,0.92556907 0 0 0 0.43554,-0.91993 c 0.60359,-1.28056 1.21161,-2.56343 1.81836,-3.8457 26.10961,-0.0554 55.24262,-6.87951 87.83203,-37.8789 z m -465.9375,9.17578 c 25.67201,14.65672 51.72308,28.41742 82.63868,34.18164 4.57904,9.88768 9.18169,19.66351 13.74414,29.22265 0.25975,0.54422 0.51593,1.07237 0.77539,1.61524 -32.41362,-9.01776 -64.07984,-23.71413 -91.52735,-37.67383 -2.24645,-9.01097 -4.15285,-18.13746 -5.63086,-27.3457 z m 317.65235,0.89453 c 5.18524,31.28447 10.69911,61.75725 30.14648,89.14648 -3.04706,6.74328 -5.95266,13.20708 -8.84961,19.65821 a 0.93169499,0.93169499 0 0 0 -0.51758,1.15234 c -0.93624,2.08531 -1.93612,4.29646 -2.85546,6.3457 C 577.978,242.56017 570.3381,211.21566 566.53026,177.92187 a 0.92556907,0.92556907 0 0 0 -0.0351,-0.19336 c 3.68443,-7.278 7.60035,-14.52801 11.73828,-21.71679 z m -152.42188,5.80078 c 3.25747,6.28161 6.20998,12.58219 8.81836,18.9082 0.20027,0.4857 0.38363,0.97301 0.58008,1.45899 -16.97235,42.00769 -30.58589,72.17966 -47.80469,94.74023 -1.30417,-2.66553 -2.5339,-5.18775 -3.87695,-7.93164 a 0.93969509,0.93969509 0 0 0 -0.53125,-1.08594 c -1.11185,-2.27169 -2.30259,-4.72189 -3.4375,-7.04297 21.03761,-29.3057 34.20783,-63.27218 46.25195,-99.04687 z m -275.41406,8.85351 c -18.69561,0 -34.0625,15.2593 -34.0625,34.23243 0,18.97313 15.36689,34.20117 34.0625,34.20117 18.69562,0 34.06055,-15.22804 34.06055,-34.20117 0,-18.97313 -15.36493,-34.23242 -34.06055,-34.23243 z m 677.33203,0 c -18.69561,0 -34.06055,15.2593 -34.06054,34.23243 0,18.97313 15.36493,34.20117 34.06054,34.20117 18.69561,0 34.0625,-15.22804 34.0625,-34.20117 0,-18.97313 -15.36689,-34.23242 -34.0625,-34.23243 z m -107.05859,2.40235 c -1.94959,7.83387 -4.09303,15.4476 -6.41602,22.85937 -35.84246,19.90987 -70.98582,36.99534 -99.4082,39.44727 2.35409,-5.18319 4.65619,-10.28479 7.08398,-15.57813 1.02792,-2.24117 2.0808,-4.51456 3.1211,-6.77148 26.25161,0.55095 58.24958,-18.6514 95.61914,-39.95703 z m -570.27344,2.03125 c 16.65061,0 29.9375,13.42574 29.9375,29.79883 0,16.3731 -13.28689,29.76757 -29.9375,29.76757 -16.65061,0 -29.93945,-13.39447 -29.93945,-29.76757 0,-16.37309 13.28884,-29.79883 29.93945,-29.79883 z m 677.33203,0 c 16.65062,0 29.93946,13.42574 29.93946,29.79883 0,16.3731 -13.28884,29.76757 -29.93946,29.76757 -16.65061,0 -29.9375,-13.39447 -29.9375,-29.76757 0,-16.37309 13.28689,-29.79883 29.9375,-29.79883 z m -262.74804,5.61719 c 3.97552,32.88351 11.9059,64.03755 30.26367,93.63086 -1.54719,3.44914 -2.97443,6.62104 -4.47071,9.95507 a 0.92631289,0.92631289 0 0 0 -0.54296,1.20704 c -2.49772,5.56443 -4.95815,11.02781 -7.30274,16.2207 -18.5679,-25.28245 -25.24695,-59.50725 -29.59766,-95.57617 a 0.92556907,0.92556907 0 0 0 -0.008,-0.0547 c 1.4638,-3.46273 2.96862,-6.93146 4.54102,-10.4043 2.26072,-4.9931 4.6367,-9.98917 7.11719,-14.97851 z m -128.77735,3.96875 c 4.42638,11.33927 7.83101,22.75315 10.18164,34.26172 -10.44788,37.65916 -27.31857,63.85575 -45.81836,85.03124 -1.28745,-2.67479 -2.61079,-5.41636 -3.9707,-8.21874 a 0.95014619,0.95014619 0 0 0 -0.4043,-0.83204 c -2.48585,-5.11933 -5.17301,-10.61881 -7.86328,-16.11914 17.42917,-22.56801 31.05569,-52.5976 47.875,-94.12304 z m -169.39258,0.18164 c 27.61128,13.99412 59.41055,28.6783 92.01953,37.55468 a 0.9501494,0.9501494 0 0 0 0.004,0 c 1.82418,3.80964 3.63858,7.58982 5.44141,11.32422 a 0.93969509,0.93969509 0 0 0 0.64258,1.32618 c 0.92882,1.92234 1.85437,3.83457 2.77539,5.73437 -36.11755,-1.65528 -64.21245,-15.61666 -93.19736,-30.21875 a 0.93969509,0.93969509 0 0 0 -0.006,-0.002 c -2.86908,-8.42367 -5.44105,-17.00944 -7.67969,-25.71875 z m -116.41406,4.01758 a 16,16 0 0 0 -16,16 16,16 0 0 0 16,16 16,16 0 0 0 16,-16 16,16 0 0 0 -16,-16 z m 677.33203,0 a 16,16 0 0 0 -16,16 16,16 0 0 0 16,16 16,16 0 0 0 16,-16 16,16 0 0 0 -16,-16 z m -114.26758,9.57812 c -2.96134,9.21759 -6.21791,18.10543 -9.77148,26.66602 -34.33707,17.54399 -67.78024,32.92826 -101.95508,39.25781 2.7111,-6.03592 5.41295,-12.04642 8.25391,-18.33399 a 0.93392838,0.93392838 0 0 0 0.48047,-1.05664 c 1.13568,-2.51234 2.33532,-5.12833 3.49023,-7.67382 28.76611,-2.13967 63.76867,-19.08365 99.50195,-38.85938 z m -161.56836,11.04688 c 4.42012,35.40141 11.3069,69.08861 30.14454,94.17968 -1.51542,3.35222 -2.99582,6.61342 -4.44141,9.78516 a 0.92556907,0.92556907 0 0 0 -0.61523,1.35742 c -0.68432,1.49932 -1.44938,3.2088 -2.11719,4.66406 -1.83953,4.00861 -3.59892,7.78818 -5.31055,11.43946 -19.24006,-22.93779 -27.6568,-54.02587 -31.17383,-83.76563 3.733,-12.28703 8.24949,-24.91273 13.51367,-37.66015 z m -276.52734,3.5957 c 28.66959,14.43088 56.92885,28.18186 93.25195,29.61133 3.00454,6.19126 5.88931,12.09511 8.77735,18.00586 a 0.94354803,0.94354803 0 0 0 0.56836,1.16406 c 0.92271,1.88799 1.89719,3.89468 2.80468,5.75 -37.27661,-3.72871 -67.80463,-16.30528 -96.9707,-32.91602 a 0.93969509,0.93969509 0 0 0 -0.13086,-0.0645 c -2.971,-7.03446 -5.74527,-14.22707 -8.30078,-21.55078 z m 171.80859,9.99609 c 2.30078,12.62735 3.3507,25.36864 3.15821,38.24024 a 0.93969509,0.93969509 0 0 0 -0.20313,0.3789 c -10.71576,34.42236 -25.80529,53.9298 -39.17187,64.27344 -0.42669,-0.92966 -0.87338,-1.8934 -1.31641,-2.84961 a 0.93969509,0.93969509 0 0 0 -0.6582,-1.42383 c -1.69073,-3.63358 -3.45364,-7.38221 -5.35352,-11.36523 -0.69646,-1.4601 -1.44963,-3.01934 -2.17187,-4.52344 18.23053,-20.74277 35.02301,-46.37904 45.71679,-82.73047 z m 255.39454,4.66992 c -2.94111,6.90889 -6.0684,13.61477 -9.40625,20.0918 -0.27048,0.52485 -0.55113,1.03852 -0.82422,1.56055 -41.66079,18.35101 -72.43741,30.50778 -99.39453,34.52734 1.29486,-2.88567 2.52104,-5.61152 3.85351,-8.58203 a 0.92556907,0.92556907 0 0 0 0.51172,-1.13867 c 1.1269,-2.51209 2.34561,-5.21256 3.49805,-7.7793 34.27354,-6.11878 67.64962,-21.31692 101.76172,-38.67969 z m -417.71875,9.69336 c 29.01039,16.30239 59.61909,28.61652 96.88476,32.15039 1.52627,3.11993 2.9267,5.99178 4.40234,9.00977 a 0.93969509,0.93969509 0 0 0 0.64258,1.31836 c 2.47306,5.05916 4.89741,10.03668 7.19727,14.77148 -34.03133,-0.81061 -66.10718,-15.79902 -97.85938,-33.61523 -1.62806,-3.12116 -3.23338,-6.27079 -4.78711,-9.47852 -2.24469,-4.63427 -4.40635,-9.35801 -6.48046,-14.15625 z m 252.2246,14.07813 c 3.85723,28.94887 12.52995,58.86569 31.61329,81.22461 -0.66166,1.40521 -1.32611,2.8203 -1.9668,4.16601 a 0.92556907,0.92556907 0 0 0 -0.44141,0.93555 c -2.86186,5.99488 -5.51483,11.39718 -7.91601,16.06055 -0.51294,0.99618 -0.97539,1.83563 -1.4668,2.76562 -0.58428,-0.85934 -1.14174,-1.71637 -1.70508,-2.57422 -0.74354,-1.17895 -1.5009,-2.35901 -2.27148,-3.54297 -11.46529,-18.33274 -18.50135,-36.57967 -25.05664,-57.64843 1.92317,-13.03352 5.01739,-26.95459 9.21093,-41.38672 z m 153.87696,0.50781 c -6.16463,11.49161 -12.97917,22.28365 -20.44727,32.39453 -34.63996,19.89852 -64.20799,26.80218 -90.8164,28.86133 1.31884,-2.89632 2.65723,-5.84099 4.0332,-8.88477 a 0.94000792,0.94000792 0 0 0 0.39258,-0.86523 c 2.54257,-5.62761 5.20191,-11.52522 7.92578,-17.59375 27.10708,-3.81758 57.71906,-15.81566 98.91211,-33.91211 z m -393.25977,12.05469 c 31.33434,17.4245 63.18545,31.99257 97.21289,32.53125 1.48865,3.0692 2.93348,6.0629 4.33399,8.97656 a 0.94398794,0.94398794 0 0 0 0.57812,1.19922 c 0.67667,1.40988 1.45951,3.0044 2.11328,4.375 1.76352,3.69714 3.41049,7.20022 4.99024,10.59375 -32.71715,1.06806 -63.61644,-10.83377 -89.75977,-25.5918 -6.8612,-9.96462 -13.39844,-20.71362 -19.46875,-32.08398 z m 152.44531,3.63672 c -1.4411,30.7419 -9.93542,62.24721 -25.54101,94.77929 a 0.93969509,0.93969509 0 0 0 0,-0.16601 c -0.35088,-4.09897 -2.56275,-10.65757 -6.19922,-19.4668 -1.85445,-4.49234 -4.08811,-9.57128 -6.62891,-15.14258 13.07886,-9.99288 27.61242,-28.39022 38.36914,-60.0039 z m 526.54102,6.23242 c 0.97044,0.004 1.95375,0.0185 2.92774,0.0254 -10.97624,9.09728 -16.88121,20.35204 -24.70899,30.48828 a 1.0667733,1.0667733 0 0 0 -0.22266,0.51172 c -5.69516,3.93648 -11.57309,7.87358 -17.59179,11.80664 7.84343,-17.01881 19.3569,-28.77596 30.02148,-42.81055 3.17066,-0.0262 6.36116,-0.034 9.57422,-0.0215 z m 6.29883,0.0547 c 4.10533,0.0435 8.22863,0.1036 12.38673,0.1914 -10.7119,9.03977 -22.7363,18.17403 -35.73634,27.32422 6.96903,-9.69088 12.94946,-19.63313 23.34961,-27.51562 z m -18.61328,0.006 c -10.92655,14.15744 -22.91606,26.40922 -30.68164,44.99414 -8.00032,5.17782 -16.26258,10.34293 -24.70508,15.48632 1.34397,-20.63296 9.47461,-39.60294 20.7168,-59.22851 9.38968,-0.56117 18.96037,-0.95617 28.73632,-1.16602 1.96321,-0.0421 3.95135,-0.0617 5.9336,-0.0859 z m -941.582036,1.00585 c 3.213727,-0.0125 6.404864,-0.003 9.576172,0.0234 10.66412,14.03361 22.176506,25.79067 30.019531,42.8086 -6.018738,-3.93309 -11.896601,-7.87014 -17.591797,-11.80664 A 1.0667733,1.0667733 0 0 0 44.563464,305.5548 C 36.735902,295.41884 30.830126,284.1656 19.85448,275.06847 c 0.973989,-0.007 1.957295,-0.0236 2.927734,-0.0274 z m -6.296875,0.0566 c 10.39993,7.88307 16.382061,17.82442 23.351563,27.51562 -13.001086,-9.15083 -25.02761,-18.28382 -35.7402345,-27.32422 4.158782,-0.0878 8.2827125,-0.14792 12.3886715,-0.1914 z m 18.613281,0.006 c 1.981584,0.0242 3.969088,0.0418 5.931641,0.084 9.775302,0.20984 19.345288,0.60686 28.734375,1.16797 11.242367,19.62579 19.374752,38.59337 20.718752,59.22656 -8.44251,-5.1434 -16.704761,-10.30851 -24.70508,-15.48633 C 58.013122,301.51199 46.024716,289.26031 35.09862,275.10377 Z m 892.03906,0.3379 c -11.22699,19.79846 -19.35679,39.1833 -20.40234,60.43945 -7.33319,4.44611 -14.80376,8.87244 -22.3789,13.27148 0.60914,-26.69536 14.71562,-48.37857 28.1582,-72.62109 4.82183,-0.41073 9.69451,-0.77731 14.62304,-1.08984 z m 69.06638,0.94531 c -2.581,7.59669 -5.4919,15.05957 -8.707,22.38476 a 1.077033,1.077033 0 0 0 -0.166,0.0508 c -8.92242,3.595 -17.9077,4.32109 -26.9922,4.90234 13.03044,-9.14542 25.0858,-18.28247 35.8652,-27.33789 z m -923.878877,0.12305 c 4.927861,0.31251 9.799905,0.67721 14.621095,1.08789 13.442592,24.24251 27.549072,45.92572 28.158202,72.62109 -7.57508,-4.39901 -15.04577,-8.82542 -22.378902,-13.27148 -1.04563,-21.25509 -9.174177,-40.64002 -20.400395,-60.4375 z m 837.619147,0.23828 c -13.419,24.06114 -27.64264,46.12864 -27.80469,73.69336 -7.22245,4.17812 -14.53625,8.32726 -21.9043,12.44531 -0.024,-0.011 -0.0482,-0.0202 -0.0723,-0.0312 a 1.0667733,1.0667733 0 0 0 -0.59961,-0.0996 v -0.002 a 1.0667733,1.0667733 0 0 0 -0.90625,1.01367 c -1.02052,0.56909 -2.05171,1.12951 -3.07422,1.69726 5.49284,-31.69048 14.70259,-53.75649 22.54687,-67.77734 3.94962,-7.05955 7.53708,-12.09415 10.13477,-15.26563 1.29883,-1.58574 2.36715,-2.69347 3.0664,-3.36718 0.22313,-0.21499 0.34364,-0.31502 0.47071,-0.42188 5.96217,-0.70814 12.00696,-1.33775 18.14258,-1.88476 z M 3.2568245,277.45337 c 10.7794295,9.05543 22.8347935,18.19248 35.8652335,27.33789 -9.0845,-0.58124 -18.069758,-1.30733 -26.992188,-4.90234 a 1.077033,1.077033 0 0 0 -0.166015,-0.0508 C 8.7487375,292.51292 5.8378645,285.05005 3.2568245,277.45335 Z m 86.2597635,0.36133 c 6.14572,0.54792 12.200182,1.1791 18.171882,1.88867 0.11926,0.10887 0.22687,0.21128 0.4414,0.41797 0.69925,0.67371 1.76757,1.78145 3.06641,3.36719 2.59768,3.17148 6.18514,8.20608 10.13476,15.26563 7.84445,14.02113 17.05407,36.08778 22.54688,67.77929 -1.01875,-0.56566 -2.04572,-1.12441 -3.0625,-1.6914 a 1.0667733,1.0667733 0 0 0 -1.25195,-1.01953 1.0667733,1.0667733 0 0 0 -0.26563,0.0996 c -0.0248,0.0114 -0.0494,0.0219 -0.0742,0.0332 -7.36756,-4.11779 -14.68037,-8.26942 -21.90234,-12.44727 -0.16202,-27.56516 -14.3855,-49.63176 -27.804692,-73.69336 z m 798.853522,1.24024 c -0.51872,0.57769 -1.09527,1.24576 -1.74024,2.0332 -2.68404,3.27691 -6.35615,8.40057 -10.36523,15.56641 -8.01818,14.33166 -17.4152,36.85307 -22.9336,69.13476 a 1.079612,1.079612 0 0 0 0.20118,0.81055 c -7.40264,4.09871 -14.84089,8.16524 -22.30469,12.18359 a 1.0667733,1.0667733 0 0 0 -0.53125,-0.0293 1.0667733,1.0667733 0 0 0 -0.86328,0.7832 c -0.21267,0.11431 -0.42403,0.23146 -0.63672,0.3457 6.38506,-32.69457 23.56047,-65.52978 41.96875,-98.42773 5.64927,-0.88112 11.38969,-1.67527 17.20508,-2.40039 z m -777.28125,1.06445 c 5.81678,0.72527 11.55839,1.52295 17.20898,2.4043 18.40779,32.89717 35.58188,65.73197 41.9668,98.42578 -0.18446,-0.0991 -0.36829,-0.1997 -0.55274,-0.29883 a 1.0671874,1.0671874 0 0 0 -1.31445,-0.82812 1.0667733,1.0667733 0 0 0 -0.15625,0.0312 c -7.46654,-4.01979 -14.90716,-8.08728 -22.3125,-12.1875 a 1.079609,1.079609 0 0 0 0.20117,-0.81054 c -5.5184,-32.28169 -14.91542,-54.80311 -22.93359,-69.13477 -4.00909,-7.16584 -7.6812,-12.28949 -10.36524,-15.5664 -0.64598,-0.78867 -1.22286,-1.45688 -1.74218,-2.03516 z m 757.37695,1.77148 c -18.42673,32.99974 -35.55116,66.06311 -41.65625,99.26954 -6.44565,3.45289 -12.88959,6.86027 -19.32617,10.24023 0.23298,-31.63682 7.97586,-66.62705 42.92187,-106.27539 5.92173,-1.17172 11.94308,-2.24848 18.06055,-3.23438 z m -737.4707,1.06836 c 6.11746,0.9859 12.13882,2.06071 18.06054,3.23243 34.94603,39.64834 42.68894,74.63857 42.92188,106.27539 -6.43649,-3.37992 -12.88061,-6.7874 -19.32617,-10.24024 -6.10527,-33.20548 -23.23008,-66.26879 -41.65625,-99.26758 z m 715.99609,2.85547 c -34.11927,39.62853 -41.60173,75.0022 -41.66016,106.71289 -1.41206,0.74 -2.82419,1.48262 -4.23437,2.21875 a 1.0667733,1.0667733 0 0 0 -0.23242,0.008 1.0667733,1.0667733 0 0 0 -0.71875,0.49023 c -8.29006,4.32384 -16.52462,8.56918 -24.69336,12.74609 -0.11428,-31.05047 20.98374,-70.09764 44.45898,-115.77734 8.78455,-2.3668 17.81296,-4.49641 27.08008,-6.39844 z m -694.52148,1.06641 c 9.26712,1.90202 18.29552,4.03164 27.08007,6.39844 23.47576,45.68067 44.57416,84.72849 44.45899,115.77929 -8.17844,-4.18187 -16.42267,-8.43259 -24.72266,-12.76172 a 1.0667733,1.0667733 0 0 0 -0.91992,-0.48242 c -1.41088,-0.7365 -2.82355,-1.48034 -4.23633,-2.2207 -0.0584,-31.7107 -7.54088,-67.08436 -41.66015,-106.71289 z m 515.28125,1.22265 c -8.35132,10.88716 -17.48961,20.95577 -27.4336,30.21485 a 0.92556907,0.92556907 0 0 0 -0.0879,0.004 0.92556907,0.92556907 0 0 0 -0.33203,0.0996 c -32.30677,17.33715 -55.73121,20.69414 -71.17187,18.59375 0.48662,-1.02705 0.98773,-2.09345 1.48632,-3.15429 a 0.92556907,0.92556907 0 0 0 0.64258,-1.36719 c 1.82437,-3.89406 3.69952,-7.92584 5.67578,-12.23242 0.72202,-1.57338 1.5479,-3.4165 2.28907,-5.04102 26.14171,-1.90975 55.1823,-8.4199 88.93164,-27.11719 z m 149.38476,4.875 c -23.36075,45.39386 -44.42303,84.30499 -43.80859,116.09961 -2.46518,1.25864 -4.94845,2.53359 -7.39649,3.77735 -5.71917,2.90571 -11.37214,5.75849 -16.97461,8.57812 2.68479,-34.53551 21.4423,-77.20365 43.25196,-120.69531 8.0806,-2.81078 16.38916,-5.39751 24.92773,-7.75977 z m -634.81055,1.06641 c 8.53857,2.36226 16.84713,4.94898 24.92774,7.75977 21.80966,43.49166 40.56717,86.1598 43.25195,120.69531 -5.60247,-2.81963 -11.25543,-5.67242 -16.97461,-8.57813 -2.44816,-1.24382 -4.93117,-2.51864 -7.39648,-3.77734 0.61374,-31.79441 -20.44819,-70.7064 -43.8086,-116.09961 z m 322.81641,0.5918 c 36.5325,47.42882 58.20941,96.55683 60.12305,145.48437 1.96819,50.32269 -16.93773,100.46248 -62.17578,148.37305 5.35692,-15.37258 10.1472,-30.52145 14.30468,-45.48828 -3.91006,14.84129 -7.9504,28.3643 -11.36328,37.44922 a 0.53338667,0.53338667 0 0 0 -0.0332,0.0994 c -0.20955,0.56075 -0.37933,1.02135 -0.4668,1.36718 -0.0469,0.18553 -0.0724,0.34799 -0.0664,0.53321 0.003,0.0926 0.01,0.21205 0.0664,0.33398 0.0571,0.12193 0.1887,0.23475 0.33399,0.29883 0.29057,0.12818 0.47242,0.0353 0.63281,-0.0332 0.16039,-0.0685 0.32473,-0.14626 0.5,-0.26563 0.35054,-0.23873 0.79106,-0.5991 1.36719,-1.06836 4.49121,-3.65811 12.21465,-13.71837 19.93359,-25.16601 7.71894,-11.44763 15.35484,-24.24254 19.4668,-33.26563 25.39215,-55.71941 22.36222,-114.50008 -9,-174.83398 -4.49836,-8.65382 -10.76662,-19.47933 -16.03516,-28.03321 -2.63426,-4.27694 -4.99943,-7.9838 -6.79883,-10.5664 -0.89969,-1.29129 -1.65696,-2.29241 -2.23437,-2.9668 -0.2887,-0.3372 -0.53549,-0.58651 -0.76563,-0.76758 -0.11506,-0.0906 -0.20156,-0.17876 -0.36718,-0.23242 -0.16562,-0.0537 -0.50615,-0.0602 -0.69922,0.13281 -0.14267,0.14266 -0.1553,0.25741 -0.16797,0.33399 -0.0127,0.0766 -0.002,0.14357 0,0.19922 0.004,0.1113 0.01,0.23925 0.0332,0.36718 0.0463,0.25586 0.12332,0.55687 0.23438,0.9668 0.2221,0.81986 0.58384,1.9513 1.0332,3.33203 0.89872,2.76146 2.20612,6.52031 3.69922,10.56836 1.64101,4.44908 3.20549,9.09437 4.68945,13.875 -4.30029,-13.69945 -9.68203,-27.36595 -16.24414,-41.02734 z m -3.14453,0.15209 c 0.0417,1.29608 0.04,2.57061 0.006,3.83008 -0.0633,-0.14978 -0.15513,-0.30715 -0.33984,-0.39844 -0.24138,-0.1193 -0.5278,-0.0428 -0.69922,0.0332 -0.34284,0.15199 -0.58222,0.37792 -0.90039,0.73437 -0.63634,0.71289 -1.4666,1.90282 -2.59961,3.4668 -4.47156,6.17241 -12.33018,13.05558 -40.66602,35.63281 -28.00544,22.31397 -34.99768,30.02488 -43.56836,47.9668 -3.84842,8.05632 -8.64374,20.78561 -10.69922,28.40039 -3.368,12.47719 -3.72585,16.26024 -3.80078,39.69922 -0.0864,27.042 0.5401,31.65339 7.23438,52.5664 12.4028,38.74654 39.92629,72.01382 68.0332,82 4.00982,1.42466 9.07892,2.33856 13.56641,2.63477 2.24374,0.1481 4.33353,0.1421 6.09961,-0.0332 1.76607,-0.17535 3.21197,-0.52963 4.16796,-1.13477 0.46199,-0.29243 0.81115,-0.66856 0.9336,-1.19922 0.12244,-0.53065 -10e-4,-1.10486 -0.30078,-1.73437 -0.59877,-1.25902 -1.893,-2.92028 -4.13282,-5.46485 -13.07798,-14.85737 -24.6512,-34.47681 -33.63086,-55.7832 10.14505,23.43586 23.9193,45.70941 40.73047,63.68164 -12.96918,4.82722 -28.34811,1.42619 -43.33398,-8.36523 -15.27615,-9.98109 -30.07349,-26.51571 -41.26563,-47.33399 -1.7031,-3.16792 -3.31227,-6.44647 -4.83789,-9.80469 -1.42144,-3.7171 -2.88139,-7.36696 -4.47656,-10.82031 -0.78271,-2.10456 -1.51487,-4.24677 -2.2207,-6.4082 a 1.0667733,1.0667733 0 0 0 -0.0312,-0.53321 c -0.5612,-1.73971 -1.14419,-3.45448 -1.72266,-5.17382 -10.66822,-37.09016 -9.62104,-81.54595 13.98828,-125.45899 1.07854,-2.00607 2.44418,-4.04845 4.00977,-6.11133 a 0.94809751,0.94809751 0 0 0 0.74023,-0.94531 c 0.45368,-0.57537 0.9123,-1.15158 1.39844,-1.73047 a 0.94663292,0.94663292 0 0 0 1.15234,-0.48047 c 0.31319,-0.63536 0.60625,-1.26768 0.91407,-1.90234 10.15947,-11.22947 25.70599,-23.00345 40.18554,-34.23047 9.68931,-7.5128 18.8891,-14.80983 25.69922,-21.5664 5.0177,-4.97825 8.74039,-9.65825 10.36719,-14.03321 z m 2.16602,0.5 c 44.96535,93.77346 34.40744,187.70224 -1.76563,291.89844 -11.70613,-40.04402 -24.72976,-60.23774 -20.80078,-152.93359 v -0.0332 c -0.42261,-25.96585 8.4469,-48.1637 15.80859,-70.36523 -0.79937,2.59791 -1.6225,5.24445 -2.54101,8.09961 -11.86946,36.89578 -13.1338,45.23943 -13.16797,86.96679 -0.0408,49.89234 2.53531,69.16443 14.20117,106.4336 a 0.53338667,0.53338667 0 0 0 0.0664,0.16601 l 6,19.26758 a 0.53338667,0.53338667 0 0 0 1.0332,0 l 5.33398,-16.70117 c 11.53024,-36.08165 19.82191,-73.3734 23.33204,-104.79883 1.84559,-16.52342 1.86271,-58.96894 0,-73 -3.63037,-27.34616 -12.20481,-59.8879 -20.73243,-78.80078 l -2.83398,-6.30078 a 0.53338667,0.53338667 0 0 0 -0.59961,-0.29883 0.53338667,0.53338667 0 0 0 -0.40039,0.5 l -0.0996,10 c -0.0394,3.97728 -0.32488,8.01244 -0.89062,12.33594 1.11147,-10.32468 0.78578,-21.03017 -1.94336,-32.43555 z m -0.91993,0.0137 c 0.55828,2.301 1.01206,4.57315 1.37891,6.81836 a 0.53338667,0.53338667 0 0 0 -0.35742,-0.0332 0.53338667,0.53338667 0 0 0 -0.36719,0.40039 l -0.0332,0.13281 -1.9668,8.09961 c -1.0341,4.27377 -2.38939,8.28831 -4.36328,12.58985 3.73237,-8.4969 5.96097,-17.66018 5.70898,-28.00782 z m 4.6543,1.38477 c 49.12733,50.76007 72.23006,98.43223 78.78711,140 -0.11404,-0.73725 -0.22572,-1.48116 -0.35352,-2.16602 -4.67668,-25.06294 -16.48086,-54.06051 -32.13476,-78.96679 -4.34441,-6.91221 -11.76569,-17.34052 -18.23242,-25.9336 -3.23336,-4.29654 -6.21363,-8.12292 -8.4668,-10.83203 -1.1266,-1.35456 -2.0623,-2.41663 -2.76758,-3.13476 -0.35264,-0.35906 -0.64406,-0.64463 -0.89844,-0.83203 -0.12719,-0.0938 -0.24445,-0.17827 -0.40039,-0.23438 -0.078,-0.0281 -0.17433,-0.0397 -0.30078,-0.0332 -0.12645,0.006 -0.28648,0.0521 -0.40039,0.16601 -0.14719,0.14719 -0.15949,0.31036 -0.16601,0.40039 -0.006,0.09 -0.0107,0.1417 0,0.20118 0.0209,0.11892 0.0545,0.23908 0.0996,0.36523 0.0904,0.25231 0.24633,0.57224 0.43359,0.9668 0.3745,0.78913 0.9121,1.88209 1.63281,3.20117 1.44143,2.63817 3.50872,6.18376 5.83399,10.0332 6.35679,10.52356 11.91829,21.32631 16.66015,32.22266 -9.76814,-22.0459 -23.03372,-43.9124 -39.32617,-65.42383 z m 19.40039,0.47461 c 4.28557,13.4243 8.8714,25.8184 14.82813,37.89258 -5.00714,-6.77024 -10.46061,-13.6113 -16.38868,-20.51758 0.12591,-2.80329 0.29613,-5.64788 0.56055,-8.57422 0.25938,-2.87052 0.6135,-5.82566 1,-8.80078 z m -26.26758,2.39258 c 10e-4,0.13783 0.0187,0.16462 0,0.36718 -0.0441,0.47876 -0.11915,1.10973 -0.26562,1.9336 -0.29295,1.64773 -0.80831,3.99301 -1.4668,7.09961 -2.80326,13.22516 -8.09468,22.70056 -26.40039,47.13281 -25.95226,34.63797 -31.39099,47.25378 -32.63281,75.70117 -2.12879,48.76557 20.93475,114.00261 53.26562,150.73242 2.22365,2.52619 3.47998,4.17558 3.9668,5.19922 0.24341,0.51182 0.27756,0.80439 0.23242,1 -0.0451,0.1956 -0.17343,0.36164 -0.5,0.56836 -0.67594,0.42788 -1.98143,0.7976 -3.66601,0.96485 -1.68459,0.16725 -3.73521,0.18029 -5.9336,0.0352 -4.39677,-0.29024 -9.38885,-1.19097 -13.26562,-2.56836 -27.6073,-9.80867 -55.05034,-42.85399 -67.36719,-81.33203 -6.68665,-20.88921 -7.28561,-25.20884 -7.19922,-52.23437 0.0749,-23.42863 0.40652,-26.98936 3.76563,-39.4336 2.02433,-7.49942 6.82439,-20.25983 10.63281,-28.23242 8.52514,-17.8466 15.2875,-25.27264 43.26758,-47.56641 28.34345,-22.58328 36.27014,-29.52156 40.86718,-35.86718 1.13144,-1.56181 1.9701,-2.70314 2.53321,-3.33399 0.0907,-0.10165 0.0903,-0.0947 0.16601,-0.16601 z m -181.4082,0.13867 c 25.80359,14.09411 56.06319,25.17541 88.14844,23.92969 3.47095,7.4982 6.4943,14.26872 8.85937,19.99804 0.38334,0.92862 0.74317,1.81861 1.09375,2.69727 -26.70229,-1.50637 -48.41111,-7.29553 -72.43359,-15.5332 -8.82007,-9.05475 -17.45384,-19.51315 -25.66797,-31.0918 z m 666.6445,1.83789 c -1.8632,4.12717 -3.81818,8.21101 -5.86911,12.24805 l -42.00586,4.78906 c 6.33253,-4.13557 12.5074,-8.27618 18.48438,-12.41797 9.68677,-0.61779 19.50731,-1.04325 29.39059,-4.61914 z m -196.96481,0.22461 c -21.69059,43.40871 -40.24849,85.91119 -42.57031,120.79492 -2.81238,1.41391 -5.61311,2.82058 -8.38868,4.21094 a 1.0667733,1.0667733 0 0 0 -0.44531,-0.008 1.0667733,1.0667733 0 0 0 -0.76758,0.61523 c -6.8415,3.42549 -13.36365,6.6708 -19.93359,9.94141 6.92989,-41.47097 23.77524,-82.06089 42.98047,-123.70313 9.35257,-4.30691 19.05762,-8.2579 29.125,-11.85156 z m -287.47266,0.0879 c -1.5138,19.24302 -11.69063,34.36762 -23.43164,49.51172 -3.98593,5.14123 -8.13194,10.29188 -12.14844,15.60547 2.3022,-3.20811 4.76985,-6.57551 7.51563,-10.24024 18.32594,-24.45927 23.76106,-34.14157 26.59961,-47.5332 0.65869,-3.10757 1.13517,-5.45429 1.43359,-7.13281 0.0155,-0.0871 0.0168,-0.12761 0.0312,-0.21094 z M 13.194324,302.5977 c 9.884669,3.57638 19.70649,4.00318 29.394531,4.62109 5.975872,4.14097 12.149189,8.28126 18.480469,12.41602 l -42.007813,-4.78907 c -2.050649,-4.03657 -4.004206,-8.12137 -5.867187,-12.24804 z m 196.964846,0.22461 c 10.06748,3.5937 19.77234,7.54654 29.125,11.85351 19.20483,41.64146 36.05058,82.23098 42.98047,123.70117 -6.55608,-3.2637 -13.06407,-6.50002 -19.89063,-9.91797 a 1.0667733,1.0667733 0 0 0 -1.26953,-0.63867 c -2.77099,-1.38807 -5.56733,-2.79158 -8.375,-4.20312 -2.32198,-34.88364 -20.87984,-77.38644 -42.57031,-120.79492 z m 294.78906,1.45703 c 2.86661,20.69673 -1.94968,39.19239 -8.05078,57.77539 -5.38678,16.40728 -11.77296,32.86875 -14.72461,50.88281 1.54246,-11.52844 4.77959,-21.37184 11.625,-42.61523 8.81042,-27.34143 11.41128,-40.06278 11.26563,-55.4336 z m -1.05078,2.67578 0.0996,7.93359 c 0.14447,15.24625 -2.39966,27.79189 -11.19922,55.09961 -13.30688,41.2953 -13.09106,39.79431 -13.10156,91.16602 -0.0109,53.63983 1.80904,67.67459 13.83398,105.5664 1.33447,4.20503 2.5085,8.08221 3.30078,10.9336 0.39614,1.4257 0.71168,2.61453 0.89844,3.43359 0.0135,0.0592 0.023,0.0773 0.0352,0.13281 -0.22172,-0.20762 -0.4117,-0.36395 -0.70117,-0.66601 -0.94593,-0.98708 -2.21128,-2.42267 -3.53321,-4.06641 -8.37162,-10.40956 -15.75761,-22.26654 -23.30078,-37.30078 -17.82541,-35.52772 -26.46456,-68.56858 -26.46484,-101.09961 -2.6e-4,-30.29186 5.65384,-44.36488 31.86523,-79.26562 17.97176,-23.92959 24.11205,-34.65547 27.30078,-47.83399 z m 9.16602,0.83398 c 0.5211,0.62565 1.1422,1.48251 1.96679,2.66602 1.77858,2.55273 4.17308,6.26693 6.80078,10.5332 5.25541,8.53256 11.52037,19.34898 16,27.9668 31.24463,60.1077 34.22839,118.46747 8.9668,173.90039 -4.06255,8.91468 -11.67168,21.68672 -19.36719,33.09961 -7.69551,11.41289 -15.52844,21.50785 -19.73437,24.93359 -0.41246,0.33595 -0.66418,0.53278 -0.93164,0.73242 0.0829,-0.248 0.13126,-0.44116 0.26562,-0.79882 a 0.53338667,0.53338667 0 0 0 0.0332,-0.13477 c 8.63525,-23.0386 21.14293,-73.51399 25.59961,-103.39844 3.49735,-23.45166 3.48148,-79.15528 -0.0332,-99.26758 -3.477,-19.89605 -8.66769,-39.61166 -14.93359,-56.59961 -1.48913,-4.03728 -2.80683,-7.75804 -3.69922,-10.5 -0.42305,-1.29989 -0.71832,-2.35243 -0.93359,-3.13281 z m -4.9336,0.0664 1.83399,4.0664 c 8.44854,18.73749 17.01669,51.26112 20.63281,78.5 1.8254,13.74993 1.82295,56.44488 0,72.76563 -3.49984,31.33334 -11.78822,68.5462 -23.29883,104.56641 l -4.80078,15.06833 -5.56641,-17.76758 a 0.53338667,0.53338667 0 0 0 -0.0332,-0.0664 c -11.62716,-37.1608 -14.17361,-56.24549 -14.13281,-106.06641 0.0342,-41.70629 1.27084,-49.76031 13.13281,-86.63281 8.80027,-27.35529 12.02284,-42.42914 12.16602,-56.90039 z m 249.08594,7.125 c -19.03604,41.42039 -35.70521,81.92758 -42.40625,123.51953 -2.8198,1.40318 -5.78338,2.88578 -8.54297,4.25781 a 1.0667733,1.0667733 0 0 0 -0.33594,-0.004 1.0667733,1.0667733 0 0 0 -0.74218,0.54101 c -3.26017,1.62084 -6.24898,3.1105 -9.41602,4.68555 4.40242,-32.73185 17.73762,-70.06902 37.83789,-120.61719 0.57577,-0.33368 1.14181,-0.67735 1.7207,-1.00781 7.06042,-4.0305 14.35768,-7.81905 21.88477,-11.375 z m -514.9707,1.06836 c 7.52706,3.55593 14.82438,7.34256 21.88476,11.37304 0.5789,0.33047 1.14494,0.67413 1.72071,1.00782 20.10026,50.54817 33.43546,87.88534 37.83789,120.61718 -3.17757,-1.58028 -6.17597,-3.0748 -9.44727,-4.70117 a 1.0667733,1.0667733 0 0 0 -1.04492,-0.52343 1.0667733,1.0667733 0 0 0 -0.006,0.002 c -2.75853,-1.37151 -5.72037,-2.85519 -8.53906,-4.25781 -6.70096,-41.59142 -23.37053,-82.09775 -42.40625,-123.51758 z m 736.9707,0.0293 c -3.53862,6.82035 -7.33875,13.50827 -11.375,20.06055 -18.38232,1.71076 -38.74554,2.16523 -57.60937,0.1582 8.25292,-5.02401 16.32164,-10.07229 24.1582,-15.13281 a 1.0667733,1.0667733 0 0 0 0.14062,-0.01 z m -454.75195,0.87696 c 0.6198,0.66421 1.28898,1.40558 2.19922,2.5 2.2336,2.68557 5.24021,6.51131 8.46679,10.79883 6.45316,8.57504 13.85769,19.00928 18.16797,25.86718 15.58393,24.79493 27.35551,53.70916 32,78.59961 2.83094,15.17146 2.1462,44.71786 -1.33398,58.86719 -9.41865,38.29319 -32.2425,70.05306 -61.4336,85.59961 -3.67459,1.95701 -6.46128,3.3849 -8.36718,4.20117 -0.95295,0.40814 -1.6856,0.63854 -2.16602,0.73242 -0.2289,0.0447 -0.39267,0.0698 -0.47656,0.0625 0.002,-0.014 0.004,-0.0235 0.01,-0.0625 0.0158,-0.11438 0.0542,-0.31584 0.16602,-0.5664 0.22377,-0.50113 0.67759,-1.19727 1.30078,-2.09961 1.24638,-1.80467 3.23866,-4.37181 5.9668,-7.73438 27.93934,-34.43668 42.8759,-68.60118 47.66601,-109.0332 4.8359,-40.81833 -8.09198,-90.59962 -35.13281,-135.36523 -2.31868,-3.83853 -4.37042,-7.38211 -5.80078,-10 -0.54015,-0.98861 -0.88906,-1.68173 -1.23242,-2.36719 z m -504.218755,0.18945 44.685547,5.07617 a 1.0667733,1.0667733 0 0 0 0.140625,0.01 c 7.836659,5.06059 15.905162,10.10873 24.158201,15.13281 -18.863844,2.00706 -39.227048,1.55258 -57.609373,-0.1582 -4.036172,-6.55219 -7.836447,-13.2403 -11.375,-20.06055 z m 615.005865,5.77539 c -20.6689,18.18859 -44.63954,33.07649 -72.02539,44.77149 -1.65875,-2.99591 -3.40843,-6.01172 -5.24219,-9.04297 0.66998,-1.25315 1.32662,-2.4879 2.04687,-3.88672 2.40144,-4.66386 5.0375,-10.04572 7.87891,-16.01367 15.04242,2.19615 37.23834,-0.66701 67.3418,-15.82813 z m 95.35156,6.20703 c -19.82311,49.98537 -32.97268,87.1452 -37.14649,120.00782 -6.57873,3.27273 -13.15207,6.54689 -19.25781,9.60351 a 1.0667733,1.0667733 0 0 0 -0.26758,0.0156 1.0667733,1.0667733 0 0 0 -0.70898,0.47265 c -3.27502,1.64042 -6.47611,3.25086 -9.5957,4.82422 2.25436,-32.29958 9.80756,-68.16836 31.60937,-110.20898 11.03841,-9.02951 22.83021,-17.25585 35.36719,-24.71485 z m -461.74414,1.06641 c 12.53778,7.45948 24.33011,15.68856 35.36914,24.71875 21.80027,42.03893 29.35313,77.90649 31.60742,110.20508 -3.12652,-1.57686 -6.33456,-3.19173 -9.61719,-4.83594 a 1.0667733,1.0667733 0 0 0 -0.93554,-0.4668 c -6.11172,-3.05964 -12.69158,-6.33705 -19.27735,-9.61328 -4.1738,-32.86268 -17.32331,-70.0223 -37.14648,-120.00781 z m 79.44531,3.60742 c 22.93419,7.68773 44.23267,13.06953 70.16992,14.4375 2.49655,6.44526 4.00683,11.374 4.25586,14.2832 a 0.93969509,0.93969509 0 0 0 1.60156,0.56641 c -0.41864,0.86843 -0.77238,1.72973 -1.20117,2.59961 a 0.94663292,0.94663292 0 0 0 -0.0957,0.41601 c -0.49155,0.58341 -0.96157,1.16499 -1.42188,1.7461 a 0.94809751,0.94809751 0 0 0 -0.44921,-0.0273 c -19.92303,3.5181 -43.63088,-7.30571 -66.73243,-28.20118 -2.04918,-1.85349 -4.09083,-3.81267 -6.12695,-5.82031 z m 558.94336,4.31051 a 1.0667733,1.0667733 0 0 0 0.34961,0.10937 c 19.18341,2.26919 39.9947,1.85899 58.83984,0.18555 -2.91128,4.64068 -5.94581,9.20874 -9.08593,13.70898 -20.47616,1.23178 -41.48344,3.25964 -70.9043,-1.67773 7.03175,-4.08627 13.97529,-8.1976 20.80078,-12.32617 z m -815.033202,1.06836 c 6.82521,4.12839 13.769322,8.23812 20.800782,12.32422 -29.420859,4.93736 -50.428147,2.9095 -70.904301,1.67773 -3.140109,-4.50022 -6.174665,-9.06638 -9.085937,-13.70703 18.845125,1.67344 39.656438,2.08364 58.839846,-0.18555 a 1.0667733,1.0667733 0 0 0 0.34961,-0.10937 z m 389.392582,9.74414 c -2.06159,2.85355 -4.30784,5.90067 -6.8086,9.23047 -26.25051,34.95284 -32.10183,49.50688 -32.10156,79.93359 2.8e-4,32.72005 8.68603,65.95844 26.56836,101.59961 7.56803,15.0838 15.00511,26.98897 23.43164,37.4668 1.33765,1.66327 2.62308,3.11373 3.60156,4.13476 0.48924,0.51052 0.89993,0.89222 1.23242,1.16602 0.16625,0.1369 0.30955,0.25205 0.4668,0.33398 0.0786,0.041 0.17149,0.0806 0.30078,0.0996 0.12929,0.019 0.33634,-0.004 0.5,-0.16797 0.14515,-0.14514 0.15281,-0.25823 0.16602,-0.33203 0.0132,-0.0738 0.0339,-0.11285 0.0332,-0.16797 -10e-4,-0.11022 -0.0142,-0.23435 -0.0332,-0.36523 -0.0381,-0.26176 -0.10243,-0.60874 -0.19922,-1.0332 -0.19358,-0.84893 -0.50168,-1.99867 -0.90039,-3.4336 -0.79742,-2.86988 -1.96307,-6.78471 -3.30078,-11 -6.57058,-20.70453 -10.07204,-34.22556 -11.90625,-50.98242 4.07026,30.9869 11.87197,48.1445 19.0625,73.02148 -44.48577,-47.96891 -67.43811,-126.61734 -57.45508,-175.43945 5.09259,-24.90542 20.9269,-42.86001 34.96484,-60.9668 0.79955,-1.03129 1.59156,-2.06369 2.37696,-3.09765 z m 401.89843,3.21679 c 30.22561,5.4061 51.77676,3.48784 72.2793,2.21485 -5.68711,8.01482 -11.72499,15.80009 -18.06055,23.34765 -26.2509,0.62174 -50.66021,-3.06209 -75.02539,-13.73437 6.99694,-3.91452 13.94077,-7.85859 20.80664,-11.82813 z m -767.54883,1.06641 c 6.86513,3.9691 13.80852,7.91403 20.80469,11.82813 -24.36476,10.67186 -48.772962,14.35609 -75.023438,13.73437 -6.334967,-7.54687 -12.371943,-15.33166 -18.058593,-23.3457 20.501961,1.273 42.052709,3.18912 72.277341,-2.2168 z m 410.81836,1.96875 c 0.20471,0.83839 0.40243,1.6808 0.60157,2.52344 -0.19377,-0.8413 -0.40002,-1.68252 -0.60157,-2.52344 z m 164.31836,2.13867 c -20.46917,40.93766 -27.60419,76.15993 -29.68945,107.85938 -1.83227,0.926 -3.73293,1.88001 -5.50586,2.78125 -4.70572,2.39207 -9.10948,4.66221 -13.36328,6.87304 a 1.0667733,1.0667733 0 0 0 -0.63672,-0.0742 1.0667733,1.0667733 0 0 0 -0.82812,0.83984 c -1.13762,0.59317 -2.27875,1.18828 -3.38086,1.76758 -2.30686,-18.77161 1.35012,-47.20352 20.34179,-86.40625 a 1.0667733,1.0667733 0 0 0 0.11524,-0.47657 c 10.10311,-12.01481 21.07767,-23.06702 32.94726,-33.16406 z m -163.67578,0.56446 c 1.57526,6.68113 2.98617,13.47905 4.17969,20.30859 0.56876,3.25459 1.03426,7.55695 1.41601,12.46289 -1.24841,-10.96561 -3.09531,-21.88412 -5.5957,-32.77148 z m -219.04687,0.5039 c 11.86967,10.09738 22.84609,21.15078 32.94922,33.16602 a 1.0667733,1.0667733 0 0 0 0.11132,0.47265 c 18.99169,39.20273 22.64865,67.63464 20.3418,86.40625 -1.10211,-0.57929 -2.24324,-1.17441 -3.38086,-1.76757 a 1.0667733,1.0667733 0 0 0 -1.26172,-0.83789 1.0667733,1.0667733 0 0 0 -0.20703,0.0703 c -4.25262,-2.21021 -8.65512,-4.47976 -13.35937,-6.8711 -1.77293,-0.90124 -3.67359,-1.85524 -5.50586,-2.78125 -2.08523,-31.69884 -9.21924,-66.92076 -29.6875,-107.85742 z m 552.00586,6.87891 c 24.58265,11.05293 49.21194,15.0228 75.51171,14.60742 -5.90018,6.9237 -12.05136,13.64239 -18.41601,20.15039 -28.85303,-1.72672 -56.56027,-9.37402 -83.66211,-20.20898 8.89578,-4.79361 17.7688,-9.64331 26.56641,-14.54883 z M 139.083,366.33008 c 8.79806,4.90579 17.6721,9.75301 26.56836,14.54687 -27.10183,10.83494 -54.80909,18.48226 -83.662114,20.20899 -6.364538,-6.5079 -12.515926,-13.22681 -18.416016,-20.15039 26.298928,0.41537 50.92789,-3.55336 75.50977,-14.60547 z m 692.25976,14.8164 c 27.20756,11.01732 55.07532,18.88962 84.15821,20.88086 -6.21871,6.27318 -12.63737,12.34504 -19.21485,18.21094 -32.21759,-4.00803 -63.8236,-8.91805 -92.82812,-24.33398 8.01147,-4.18473 16.04824,-8.42394 24.08594,-12.72461 a 1.0667733,1.0667733 0 0 0 1.11328,-0.5918 c 0.89601,-0.48001 1.78981,-0.96009 2.68554,-1.44141 z m -663.22461,1.06641 c 0.89496,0.4809 1.78836,0.95985 2.6836,1.43945 a 1.0667733,1.0667733 0 0 0 1.11719,0.59571 c 8.03691,4.30024 16.07328,8.53833 24.08398,12.72265 -29.00449,15.41591 -60.61059,20.32596 -92.82813,24.33399 -6.577782,-5.86618 -12.995862,-11.93745 -19.214841,-18.21094 29.082871,-1.99124 56.950671,-9.86354 84.158201,-20.88086 z m 484.73047,14.74023 c -16.54116,36.46729 -19.63242,63.30854 -17.20508,81.47657 -6.52468,3.44771 -12.40968,6.64738 -17.51367,9.55859 -9.90773,5.65116 -16.90523,10.18892 -20.43359,13.69922 13.55721,-40.55301 31.89148,-75.37843 55.15234,-104.73438 z m 148.34375,0.13868 c 29.19329,15.8712 60.86927,21.00514 92.96485,25.03906 -8.57141,7.54628 -17.41898,14.72063 -26.44532,21.55273 -33.00509,-5.90163 -69.95921,-13.99008 -102.94336,-27.86914 0.70331,-0.35688 1.3908,-0.70241 2.09571,-1.06054 11.2824,-5.73219 22.76913,-11.63653 34.32812,-17.66211 z m -454.58008,0.92968 c 23.2605,29.35575 41.59529,64.17986 55.15235,104.73243 -3.52836,-3.5103 -10.52587,-8.04806 -20.4336,-13.69922 -5.10457,-2.91154 -10.99004,-6.11238 -17.51562,-9.56055 2.42685,-18.16774 -0.66315,-45.00741 -17.20313,-81.47266 z M 198.2705,398.1582 c 11.55847,6.02531 23.04427,11.93213 34.32617,17.66407 0.70415,0.35775 1.3912,0.70209 2.09375,1.05859 -32.98436,13.87889 -69.93835,21.96757 -102.94336,27.86914 -9.02574,-6.83172 -17.87249,-14.00694 -26.44336,-21.55273 32.09638,-4.03402 63.77292,-9.16694 92.9668,-25.03907 z m 564.00586,18.91602 c 33.02021,14.1422 69.99649,22.37502 103.12695,28.35742 -8.78872,6.56848 -17.74748,12.79103 -26.81055,18.65625 -34.76181,-6.36516 -68.26785,-12.69689 -98.29297,-35.93555 2.35854,-1.18261 4.73189,-2.37462 7.11719,-3.57422 a 1.068748,1.068748 0 0 0 1.31836,-0.66211 c 4.47146,-2.25009 8.98981,-4.53567 13.54102,-6.84179 z m -525.09571,1.0664 c 4.55245,2.30676 9.07226,4.5911 13.54493,6.8418 a 1.068748,1.068748 0 0 0 1.32031,0.66211 c 2.38529,1.19959 4.75866,2.39161 7.11719,3.57422 -30.02612,23.24015 -63.53374,29.57014 -98.29688,35.93555 -9.06321,-5.86537 -18.0217,-12.08761 -26.81055,-18.65625 33.13036,-5.98233 70.10462,-14.2154 103.125,-28.35743 z m 501.00391,11.07227 c 30.03365,23.59282 63.48398,30.26429 97.77734,36.55859 -7.92837,5.05949 -15.92554,9.84422 -23.95312,14.34571 a 1.0749712,1.0749712 0 0 0 -0.14453,-0.0293 c -36.49727,-4.62393 -70.86072,-13.89412 -103.47461,-36.00586 2.2637,-1.12657 4.7096,-2.35057 7.01367,-3.49805 a 1.079609,1.079609 0 0 0 1.3457,-0.67187 c 7.04116,-3.50736 14.07479,-7.01132 21.43555,-10.69922 z m -476.9082,1.06641 c 7.36084,3.68794 14.39431,7.19377 21.43554,10.70117 a 1.079609,1.079609 0 0 0 1.34571,0.66992 c 2.30349,1.14719 4.74857,2.37175 7.01172,3.49805 -32.61368,22.11137 -66.97566,31.38196 -103.47266,36.00586 a 1.0749677,1.0749677 0 0 0 -0.14258,0.0293 c -8.02825,-4.50183 -16.02605,-9.28578 -23.95508,-14.3457 34.29337,-6.2943 67.74369,-12.96578 97.77735,-36.55859 z m 304.50781,1.19336 c 0.97366,10.45413 1.01509,20.60296 0.0762,30.26367 0.59127,-7.20864 0.75317,-14.42653 0.4707,-21.64844 -0.1123,-2.8715 -0.29934,-5.74338 -0.54687,-8.61523 z m 21.05078,6.14257 c 5.60811,36.85526 -1.79785,68.86987 -15.63281,93.90625 -2.32051,3.18826 -4.42316,6.53703 -6.16797,10.07422 -16.43816,24.44127 -39.04043,40.71776 -59.9375,46.25977 20.57298,-22.05181 35.62543,-44.5992 45.67969,-67.42774 -7.7965,18.01938 -18.53323,35.27257 -32.61328,52.62696 -2.73298,3.36853 -4.78281,5.90901 -6.06641,7.76758 -0.6418,0.92929 -1.09291,1.68459 -1.36719,2.29882 -0.13714,0.30711 -0.22835,0.59662 -0.26562,0.86719 -0.0373,0.27057 -0.006,0.54621 0.16601,0.80078 0.17152,0.25457 0.4653,0.39124 0.73438,0.43164 0.26908,0.0404 0.52016,0.0277 0.83203,-0.0332 0.62373,-0.12189 1.41392,-0.40953 2.40039,-0.83203 1.97292,-0.84499 4.75166,-2.27346 8.43359,-4.23438 29.51926,-15.72133 52.51861,-47.75052 62,-86.29882 3.32918,-13.53538 4.09025,-40.19409 1.80469,-56.20704 z m 119.39063,7.54493 c 32.44553,22.27632 66.62911,31.88354 102.6875,36.69726 -5.52284,3.04437 -11.05497,5.95838 -16.58204,8.73047 -3.80211,1.90694 -7.60059,3.72428 -11.39257,5.5 a 1.0749706,1.0749706 0 0 0 -0.008,0 c -39.53738,-5.28287 -77.02477,-13.3879 -104.71093,-35.96484 5.66008,-2.83376 11.75401,-5.87196 17.8164,-8.89063 a 1.0749712,1.0749712 0 0 0 1.38672,-0.68945 c 3.61797,-1.80118 7.06088,-3.52082 10.80274,-5.38281 z m -412.99219,1.06835 c 3.74247,1.86231 7.18614,3.5794 10.80469,5.38086 a 1.0749677,1.0749677 0 0 0 1.38867,0.69141 c 6.06176,3.01836 12.15493,6.0552 17.81445,8.88867 -27.68615,22.57694 -65.17356,30.68196 -104.71094,35.96485 a 1.0749677,1.0749677 0 0 0 -0.008,0.002 c -3.79245,-1.77592 -7.58999,-3.59477 -11.39258,-5.50195 -5.52657,-2.77184 -11.05774,-5.6864 -16.58008,-8.73047 36.05679,-4.8137 70.23937,-14.42052 102.6836,-36.69532 z m 380.8789,14.94922 c 27.50976,22.82593 64.4571,31.2249 103.24024,36.58399 -13.9826,6.4026 -27.83742,11.90229 -41.32031,16.44531 -32.60052,-4.26728 -66.65285,-14.45092 -91.78321,-37.85547 4.03746,-2.09352 8.21527,-4.24256 12.64844,-6.49609 1.66676,-0.84727 3.45658,-1.74591 5.17578,-2.61524 a 1.0687512,1.0687512 0 0 0 1.33594,-0.67578 c 3.47125,-1.75312 7.03578,-3.5486 10.70312,-5.38672 z m -348.76367,1.06641 c 3.6671,1.83799 7.2321,3.63371 10.70313,5.38672 a 1.068748,1.068748 0 0 0 1.33789,0.67578 c 1.71867,0.86905 3.50756,1.76822 5.17383,2.61523 4.43317,2.25354 8.61097,4.40257 12.64843,6.4961 -25.12938,23.40362 -59.17992,33.58985 -91.77929,37.85742 -13.48375,-4.54314 -27.34066,-10.04429 -41.32422,-16.44727 38.78308,-5.35908 75.73052,-13.75808 103.24023,-36.58398 z m 207.56836,2.30078 c -0.36459,4.75947 -0.79779,9.07236 -1.32031,12.57617 -0.65367,4.38319 -1.49942,9.25396 -2.46484,14.38477 1.56332,-9.04253 2.83052,-18.02679 3.78515,-26.96094 z m 109.33985,12.84766 c 24.533,23.15502 57.39422,33.66732 89.14648,38.33008 -15.87845,5.12514 -31.19098,8.91196 -45.51563,11.25781 -25.65085,-8.84385 -47.48782,-18.40843 -69.88085,-35.29883 1.02057,-0.59783 2.06287,-1.20253 3.15625,-1.82617 6.46991,-3.69031 14.31749,-7.89287 23.09375,-12.46289 z m -285.05274,1.0664 c 8.77626,4.57003 16.62383,8.7726 23.09375,12.46289 1.09329,0.62359 2.13618,1.22882 3.15625,1.82618 -22.39303,16.89039 -44.23,26.45498 -69.88086,35.29882 -14.32464,-2.34584 -29.63717,-6.13267 -45.51562,-11.25781 31.75239,-4.66277 64.61343,-15.17484 89.14648,-38.33008 z m 28.22461,15.46094 c 7.11015,4.24653 12.21596,7.76823 14.80078,10.33399 1.21092,1.82548 2.33393,3.79362 3.40039,5.85351 a 1.0667733,1.0667733 0 0 0 -0.19922,0.24805 c -12.97035,16.86147 -40.4448,23.11509 -75.5664,19.59961 -3.20895,-0.3212 -6.50107,-0.75201 -9.83008,-1.23438 24.40687,-8.61944 45.64585,-18.25396 67.39453,-34.80078 z"
     id="path3935"
     inkscape:export-xdpi="122"
     inkscape:export-ydpi="122"
     inkscape:connector-curvature="0" />
</svg>
